<svg width="28" height="24" viewBox="0 0 28 24" fill="none" xmlns="http://www.w3.org/2000/svg">
<path d="M19.4 6.66667V2.66667H8.6V6.66667H5.9V0H22.1V6.66667H19.4ZM22.1 12.6667C22.4825 12.6667 22.8031 12.5389 23.0619 12.2833C23.3206 12.0278 23.45 11.7111 23.45 11.3333C23.45 10.9556 23.3206 10.6389 23.0619 10.3833C22.8031 10.1278 22.4825 10 22.1 10C21.7175 10 21.3969 10.1278 21.1381 10.3833C20.8794 10.6389 20.75 10.9556 20.75 11.3333C20.75 11.7111 20.8794 12.0278 21.1381 12.2833C21.3969 12.5389 21.7175 12.6667 22.1 12.6667ZM19.4 21.3333V16H8.6V21.3333H19.4ZM22.1 24H5.9V18.6667H0.5V10.6667C0.5 9.53333 0.89375 8.58333 1.68125 7.81667C2.46875 7.05 3.425 6.66667 4.55 6.66667H23.45C24.5975 6.66667 25.5594 7.05 26.3356 7.81667C27.1119 8.58333 27.5 9.53333 27.5 10.6667V18.6667H22.1V24ZM24.8 16V10.6667C24.8 10.2889 24.6706 9.97222 24.4119 9.71667C24.1531 9.46111 23.8325 9.33333 23.45 9.33333H4.55C4.1675 9.33333 3.84688 9.46111 3.58813 9.71667C3.32938 9.97222 3.2 10.2889 3.2 10.6667V16H5.9V13.3333H22.1V16H24.8Z" fill="#1D1D1E"/>
</svg>
